<?xml version="1.0" encoding="utf-8"?>
<!-- Generator: Adobe Illustrator 24.2.3, SVG Export Plug-In . SVG Version: 6.00 Build 0)  -->
<svg version="1.1" id="design" xmlns="http://www.w3.org/2000/svg" xmlns:xlink="http://www.w3.org/1999/xlink" x="0px" y="0px"
	 viewBox="0 0 480 162" style="enable-background:new 0 0 480 162;" xml:space="preserve">
<style type="text/css">
	.st0{fill:#FFFFFF;}
	.st1{clip-path:url(#SVGID_2_);}
	.st2{fill:#1E1E12;}
	.st3{fill:#71ADBD;}
	.st4{clip-path:url(#SVGID_6_);}
	.st5{fill:#AA8657;}
	.st6{fill:#231815;}
	.st7{fill:#7E1E22;}
</style>
<g>
	<g>
		<path class="st0" d="M59.65,94.16c8.23-4.86,16.99-13.02,16.99-26.15c0-14.44-10.65-28.16-25.31-34.47
			c0.09-1.63,0.21-3.37,0.34-3.87c0.17-0.27,0.24-0.55,0.26-0.82c0.08-1.09-2.54-5.45-5.7-5.45c-0.71,0-2.48,1.07-2.48,1.78
			c0,0.83,0.12,2.84,0.12,5.92v0.17c-3.79-1-7.1-1.24-8.99-1.24c-3.43,0-6.39,0.71-8.05,3.67c-1.89,3.31-4.97,5.32-4.97,9.82
			c0,10.29,18.69,40.23,21.65,59.14c0.12,2.21,0.23,4.34,0.21,6.29c-3.36-1.33-6.49-2.72-8.61-4.84c-0.24-0.59-0.59-0.83-0.95-0.83
			c-0.95,0-2.37,2.01-2.37,4.14c0,1.42,0.95,2.96,1.66,3.91c1.67,2.35,5.34,4.36,10.12,5.5c-0.05,3.41-0.46,3.85-0.54,4.32
			c-0.09,0.27-0.14,0.53-0.14,0.78c-0.03,1.43,3.68,4.66,6.06,4.66c0.59,0,2.6-0.59,2.6-1.77c0-0.57-0.34-1.7-0.39-7
			c0.48,0.01,0.96,0.02,1.45,0.02c15.74,0,24.85-6.15,24.85-13.13C77.46,96.88,65.75,94.28,59.65,94.16z M43.39,76.17v9.63
			c0,0.38-0.06,0.64-0.2,0.64c-0.07,0-0.14-0.11-0.18-0.36C39.97,72.5,28.36,45.52,28.36,40.44c0-2.25,2.13-2.6,4.61-2.6
			c3.31,0,7.34,0.59,10.82,1.68C43.66,48.34,43.39,59.07,43.39,76.17z M50.84,75.34c0-15.42,0.04-25.31,0.21-33.18
			c11.98,6.68,18.13,18.39,18.13,27.98c0,15.38-15.5,23.55-18.25,24.91C50.87,87.05,50.84,78.87,50.84,75.34z M58.65,111.91
			c-2.25,0-4.85-0.24-7.57-0.75c-0.04-3.64-0.08-7.79-0.11-11.99c1.31-0.18,2.56-0.27,3.9-0.27c7.57,0,14.44,2.96,14.44,7.57
			C69.3,110.25,63.5,111.91,58.65,111.91z"/>
		<path class="st0" d="M187.12,90.37c-0.47,0-0.83,0.24-0.95,0.59c-1.54,8.05-5.21,18.69-7.22,18.69c-1.54,0-3.43-6.27-3.43-15.85
			c0-4.67,0.06-13.14,0.17-17.65c3.23-0.75,5.45-1,6.7-1.16c0.71-0.12,0.95-0.71,0.95-1.42c0-2.13-2.01-5.68-3.55-5.68
			c-0.65,0-1.81,0.03-3.86,0.4c-0.08-7.88,0.05-16.93,0.31-17.44c0.24-0.36,0.35-1.06,0.35-1.42c0-2.48-4.02-5.92-6.15-5.92
			c-0.83,0-1.66,1.06-1.66,2.13c0,0.72,0.34,2.76,0.32,4.66c-0.07,5.89,0,12.28-0.21,19.49c-0.57,0.18-3.49,1.09-4.25,1.41
			c-0.7,0.29-1.18,0.59-1.18,1.18c0,2.01,2.57,4.78,5.1,5.06c-0.35,4.51-1.54,11.15-2.38,15.53c-0.08,0.31-0.12,0.59-0.12,0.95
			c0,0.21,0.02,0.41,0.05,0.61c-2.89,10.74-8.1,16.3-10.66,16.27c-2.5,0.05-3.56-5.16-4.01-8.72c8.02-0.35,10.98-15.14,10.98-23.54
			c0-5.8-1.42-11.71-6.77-11.94c-0.49-0.02-0.82-0.14-1.2-0.45c-0.9-0.7-2.02-1.22-3.04-1.22c-4.65,0-7.11,15.06-7.11,27.38
			c0,2.24,0.09,4.42,0.27,6.46c-2.67,8.73-6.22,13.95-7.59,13.92c-1.55,0.04-3.44-6.71-4.19-12.57c6.07-9.28,9.97-33.77,9.97-50.1
			c0-6.39-0.95-12.9-4.63-14.55c-1.29-0.58-2.23-2.25-3.89-2.25c-6.57,0-9.13,25.25-9.13,46.92c0,4.79,0.08,10.36,0.56,15.68
			c-2.7,10.5-6.9,16.9-8.42,16.87c-1.55,0.04-3.44-6.71-4.19-12.57c6.07-9.28,9.97-33.77,9.97-50.1c0-6.39-0.95-12.9-4.63-14.55
			c-1.29-0.58-2.23-2.25-3.89-2.25c-6.57,0-9.13,25.25-9.13,46.92c0,3.84,0.05,8.18,0.32,12.49c-1.48,6.85-4.4,14.81-5.48,14.81
			c-0.63,0-0.87-3.39-0.87-9.19c0-8.72,0.47-24.69,1.08-27.76c0.02-0.11,0.02-0.22,0.02-0.33c0-2.13-2.84-4.4-4.87-4.4
			c-0.87,0-2.8,0.8-2.8,1.9c0,0.67,0.18,2.03,0.18,4.23c0,17.28-3.89,36.9-6.34,36.92c-1.11,0.01-1.56-6.79-1.56-14.76
			c0-9.17,0.35-22.73,1.17-26.4c0.12-0.22,0.17-0.44,0.17-0.65c-0.01-1.75-2.58-4.44-4.9-4.44c-0.93,0-3.2,1.21-3.2,2.23
			c0,0.71,0.21,2.23,0.21,3.81c0,6.49-0.32,20.95-0.32,30.41c0,6.79,1.87,9.2,3.1,11.65c1.51,3.02,3.12,4.9,5.25,4.9
			c3.14,0,5.18-5.99,6.32-12.39c0.03-0.17,0.1-0.27,0.18-0.27c0.07,0,0.13,0.08,0.16,0.28c0.38,2.69,1.22,4.54,2.14,6.23
			c2.27,4.15,4.08,4.57,4.89,4.57c2.77,0,5.25-4.32,7.05-9.21c1.27,5.52,3.38,9.8,6.87,11.05c0.92,0.33,2.96,1.42,4.26,1.42
			c3.86,0,6.92-4.86,9.1-10.49c1.3,4.55,3.3,7.97,6.37,9.07c0.92,0.33,2.96,1.42,4.26,1.42c3.51,0,6.35-4.01,8.47-8.96
			c0.76,1.87,1.91,4,4.32,5.4c2.28,1.33,3.42,2.38,5.78,2.38c5.58,0,9.73-7.18,12.16-14.14c0.32,2.12,0.91,3.95,1.52,5.39
			c1.06,2.51,2.31,3.89,4.16,5.2c1.77,1.25,3.19,3.2,5.21,3.2c6.03,0,10.53-19.76,10.53-22.72
			C190.32,91.67,188.66,90.37,187.12,90.37z M112.29,84.34c0-18.69,2.25-44.84,4.61-44.84c0.47,0,1.07,0.95,1.07,10.18
			c0,15.26-3.08,37.15-5.38,44.92C112.41,91.55,112.29,88,112.29,84.34z M132.01,84.34c0-18.69,2.25-44.84,4.61-44.84
			c0.47,0,1.07,0.95,1.07,10.18c0,15.26-3.08,37.15-5.38,44.92C132.13,91.55,132.01,88,132.01,84.34z M155.1,70.43
			c0.81-0.06,1.28,4.56,1.24,7.96c0.04,7.95-1.97,16.59-5.16,20.83C151.26,84.97,153.55,70.43,155.1,70.43z"/>
		<path class="st0" d="M338.48,67.3L338.48,67.3c-0.93-0.73-2.37-1.07-3.43-1.42c-1.06-0.36-2.13-1.3-3.31-1.3
			c-2.79,0-4.76,10.14-6.32,21.66c-0.07,0.36-0.16,0.51-0.26,0.51c-0.08,0-0.18-0.09-0.17-0.44c0.34-10.99,0.95-22.93,1.31-25.04
			c0.03-0.18,0.05-0.37,0.05-0.55c-0.03-2.88-3.39-5.36-5.14-5.36c-1.54,0-2.72,0.95-2.72,1.66c0,1.06,0.24,2.25,0.24,5.44
			c0,6.53-0.19,18.75-0.32,30.36c-1.5,6.8-4.38,14.63-5.44,14.63c-0.63,0-0.87-3.39-0.87-9.19c0-8.72,0.47-24.69,1.08-27.76
			c0.02-0.11,0.02-0.22,0.02-0.33c0-2.13-2.84-4.4-4.87-4.4c-0.87,0-2.8,0.8-2.8,1.9c0,0.67,0.18,2.03,0.18,4.23
			c0,17.28-3.89,36.9-6.34,36.92c-1.11,0.01-1.56-6.79-1.56-14.76c0-9.17,0.35-22.73,1.17-26.4c0.12-0.22,0.17-0.44,0.17-0.65
			c-0.01-1.75-2.58-4.44-4.9-4.44c-0.93,0-3.2,1.21-3.2,2.23c0,0.71,0.21,2.23,0.21,3.81c0,4.13-0.13,11.49-0.22,18.73
			c-1.3,1.18-2.95,2.33-4.81,3.36c0.04-1.08,0.06-2.17,0.06-3.24c0-7.63-0.97-14.7-2.89-18.02c-1.26-2.18-3.02-3.31-5.15-3.79
			c-1.07-0.24-2.27-1.42-4.05-1.42c-5.55,0-9.78,11.08-9.78,22.4c0,2.41,0.35,4.45,0.99,6.18c-1.64,7.96-5.97,17.55-7.74,17.55
			c-0.9,0-1.13-1.87-1.13-5.19c0-8.76,1.64-21.9,4.38-30.29c0.07-0.21,0.1-0.47,0.1-0.76c0-1.15-0.33-2.2-1.88-3.39
			c-2.14-1.64-2.25-4.38-5.44-4.38c-1.47,0-5.26,1.29-5.86,1.47c-0.1-2.17-0.19-5.33-0.53-6.68c-0.54-2.14-2.96-3.79-4.73-3.79
			c-1.61,0-2.83,4.38-2.83,6.2c0,4.56,1.78,7.96,3.1,10.23c-0.1,9.85-2.07,22.29-4.33,28.37c-0.89-0.99-2.19-1.61-4.11-1.61
			c-1.77,0-2.72,0.47-2.75,1.66c0,0.22,0.05,0.45,0.15,0.71c0.11,0.96,0.34,6.07,0.35,8.16c-3.19,0.71-6.62,1.18-9.35,1.18
			c-8.64,0-12.42-4.73-12.42-18.93c0-25.32,11.95-55.73,18.93-55.73c0.33,0,0.66,0.06,0.94,0.21c-0.02,5.04-0.12,11.71-0.12,20.26
			c0,2.48-0.35,20.71-0.35,23.9c0,1.54,1.66,4.38,3.79,4.38c1.42,0,3.43-0.8,3.43-2.01c0-0.52-0.12-1.07-0.18-1.5
			c-0.15-1.97-0.23-5.32-0.23-9.38c0-8.52,1.95-19.88,1.95-25.2c0-2.39-0.7-5.07-1.85-7.58c0.09-5.22,0.26-10.78,0.31-12.54
			c0.01-0.43,0.43-0.96,0.44-1.38c0.01-2.08-2.97-4.54-5.05-4.54c-0.71,0-2.37,0.71-2.37,1.54c0,1.31,0.11,6.62,0.18,8.92
			c-1.25-0.78-2.55-1.23-3.85-1.23c-13.02,0-23.55,32.89-23.55,58.22c0,8.05,1.06,15.74,5.48,20.59c5.58,6.13,9.42,9.46,14.51,9.46
			c2.96,0,6.03-0.83,9.35-2.93c0,1.33,0.12,2.55,0.12,4.82c0,9.58-1.06,13.37-4.26,13.37c-3.67,0-11.83-4.73-15.97-10.41
			c-0.35-0.71-0.71-0.83-1.06-0.83c-1.77,0-3.19,3.43-3.19,5.32c0,1.66,0.68,4.05,2.25,5.68c2.02,2.12,8.16,5.68,14.55,5.68
			c5.09,0,7.1-2.25,9.82-3.79c4.26-2.37,4.73-7.22,4.85-12.9V112.5c0.24-0.77,0.44-1.6,0.59-2.44c0.91-0.13,1.85-0.55,2.28-1.24
			c3.31-5.26,5.21-24.79,5.51-34.71c1.52-0.27,3.26-0.49,5.43-0.53c-1.65,6.98-3.53,17.9-3.53,26.31c0,5.28,0.74,9.71,2.74,11.88
			c3.26,3.54,4.72,4.63,6.61,4.63c2.72,0,5.43-4.53,7.47-9.72c0.27,0.88,0.61,1.73,1.03,2.5c1.92,3.57,3.63,4.38,6.24,5.21
			c1.54,0.49,2.5,1.06,3.8,1.06c4.42,0,7.16-8.23,8.27-17.87c1.89-0.79,3.71-1.74,5.24-2.75c-0.01,1.46-0.02,2.87-0.02,4.17
			c0,6.79,1.87,9.2,3.1,11.65c1.51,3.02,3.12,4.9,5.25,4.9c3.14,0,5.18-5.99,6.32-12.39c0.03-0.17,0.1-0.27,0.18-0.27
			c0.07,0,0.13,0.08,0.16,0.28c0.38,2.69,1.22,4.54,2.14,6.23c2.27,4.15,4.08,4.57,4.89,4.57c1.95,0,3.76-2.15,5.29-5.13
			c0,0.94-0.01,1.85-0.01,2.71c0,6.32,0,20.96-0.26,26.7c-0.02,0.51-0.22,2.14-0.22,3.12c0,1.66,2.84,4.14,4.98,4.14
			c2.19,0,3.21-1.44,3.19-2.31c0-0.15-0.04-0.33-0.12-0.53c-0.24-0.62-0.33-5.07-0.36-10.63c-0.03-5.37,0-11.79,0-16.8
			c1.14,0.79,2.49,1.28,4.02,1.28c8.05,0,13.01-15.5,13.01-33.84C342.51,73.21,341.21,69.43,338.48,67.3z M274.16,110.96
			L274.16,110.96c-1.04,0-2.18-7.27-2.24-11.92c1.47,0.46,3.13,0.68,4.98,0.68c0.44,0,0.91-0.03,1.4-0.08
			C277.17,107.21,275.14,110.96,274.16,110.96z M278.92,93.77c-2.37,0.72-4.73,1.16-6.82,1.21l-0.06-0.08
			c0.28-4.03,1-6.73,1.69-7.25c0.35-0.24,0.46-0.59,0.46-0.83c-0.02-1.35-1.6-3.06-3.26-3.46c1.14-7.1,4.05-14.29,5.46-14.29
			c1.66,0,2.72,9.47,2.72,18.58C279.11,89.85,279.04,91.89,278.92,93.77z M325.47,112.64v-3.33c1.49-14.84,6.16-39.77,8.52-39.77
			c1.18,0,1.42,5.92,1.42,8.52C335.41,86.74,332.77,110.93,325.47,112.64z"/>
		<polygon class="st0" points="415.28,112.26 415.28,112.26 415.27,112.26 		"/>
		<path class="st0" d="M445.83,86.35c-0.71,0-1.26,0.22-1.42,1.3c-2.48,17.04-10.18,24.38-13.75,24.33
			c-2.88-0.04-4.1-7.46-4.1-16.18c0-10.87,1.66-24.34,5.08-27.32c-0.06,2.93-0.39,10.22-0.49,13.1c-0.1,2.85-0.34,5.38-0.34,6.66
			c0,2.2,3.31,4.5,4.26,4.5c1.54,0,2.48-0.95,2.48-1.78c0-1.68-0.12-2.72-0.12-6.15c0-7.81,0.36-19.41,0.71-20.82
			c0.12-0.36,0.24-0.95,0.24-1.18c0-2.13-2.96-4.26-4.61-4.26c-0.71,0-2.6,0.83-2.6,2.01c0,0.47,0.47,3.55,0.47,5.32
			c-1.06-1.06-2.84-2.13-4.26-2.13c-5.12,0-8.11,16.51-8.11,29.77c0,1.15,0.02,2.3,0.06,3.42c-1.54,5.23-3.61,10.11-4.73,10.1
			c-0.84,0.02-1.32-2.82-1.32-9.09c0-5.01,0.52-15.38,1.57-22.36c0.1-0.5,0.58-1.21,0.58-1.63c0-2.16-3.82-5.95-6.29-5.95
			c-1.42,0-2.87,0.94-2.96,2.13c-0.35,4.66-3.46,21.85-6.13,31.82c-0.08,0.3-0.17,0.41-0.25,0.41c-0.07,0-0.12-0.09-0.12-0.22
			c0.02-6.36,0.24-19.79,0.29-24.64c0.06-5.96,0.18-10.03,0.42-11.03c0.05-0.12,0.06-0.25,0.06-0.38c0-1.43-2.49-3.53-4.67-3.53
			c-1.18,0-3.19,0.35-3.19,1.54c0,0.71,0.36,2.96,0.36,5.8c0,6.75-0.12,22.6-0.12,31.24c0,2.45,0.02,4.69,0.05,6.57
			c-0.98-0.86-2.1-1.48-3.12-1.48l0,0c-1.39,0-4.67,0.13-7.15,0.35c-0.11-23.39-0.19-37.73-0.19-43.06c0-7.98,0.03-17.78,0.18-25.47
			c1.63-0.06,4.35-0.08,5.74-0.08c2.48,0,4.5,0.12,5.8,0.24c0.95,0.09,1.3-0.47,1.3-1.3c0-2.37-2.96-6.98-6.74-6.98
			c-1.47,0-4.22,0.05-5.86,0.16c-0.01-1.66,0.13-2.96,0.3-3.59c0.15-0.25,0.22-0.51,0.23-0.78c0.05-2.27-3.92-5.85-5.67-5.85
			c-1.18,0-2.48,1.06-2.48,1.78c0,0.83,0.24,2.84,0.24,5.32c0,1.35-0.01,1.81-0.03,3.47c-5.62,0.48-11.79,1.7-15.71,2.92
			c-1.89,0.59-5.32,1.77-6.27,5.09c-0.63,2.2-2.13,6.51-2.13,8.52c0,1.3,0.35,2.6,1.3,3.9c6.37,8.76,20.97,27.13,22.36,45.39
			c0,3.87,0.13,8.19,0.13,11.15c-6.42,0.79-12.52,1.85-15.63,2.5c-0.13-0.04-0.25-0.05-0.37-0.05c-0.63,0.01-1.05,0.61-1.05,1.71
			c0,2.13,2.6,5.09,4.52,5.05c0.54-0.01,1.56-0.54,1.87-0.67c2.66-0.34,5.78-0.84,10.51-1.34c-0.03,2.28-0.12,3.08-0.33,4.18
			c-0.1,0.29-0.14,0.56-0.14,0.82c0.02,2.59,4.52,4.15,6.89,4.15c0.95,0,1.54-0.24,1.54-0.71c0-0.75-0.14-4.06-0.21-9.16
			c3.12-0.25,7.56-0.47,11.2-0.64c1.21,1.38,3.31,2.35,4.62,2.35c0.83,0,1.3-0.36,1.42-1.42c2.07-6.92,3.97-16.21,5.98-24.4
			c0.1-0.41,0.26-0.62,0.39-0.62c0.11,0,0.19,0.14,0.2,0.43c0,0.06,0,0.13-0.01,0.19c-0.19,1.96-0.32,4.08-0.32,6.18
			c0,5.15,0.8,10.21,3.51,12.6c2.04,1.79,3.35,3.73,5.64,3.73c2.14,0,4.05-2.22,5.61-5.23c1.13,3.32,2.98,5.99,6.01,7.6
			c1.78,0.95,3.55,2.37,6.03,2.37c9.35,0,15.38-20.23,15.38-26.62C448.31,88.71,447.13,86.35,445.83,86.35z M374.93,64.34v15.35
			c-5.1-15.02-18.19-33.94-18.19-36.77c0-2.12,7.67-3.82,18.52-4.49C375.11,46.45,374.93,55.93,374.93,64.34z"/>
		<path class="st0" d="M453.81,105.87c-0.35-0.12-0.71-0.24-1.06-0.24c-2.37,0-4.14,3.08-4.14,6.03c0,2.37,1.18,4.5,4.14,4.5
			c3.67,0,5.32-2.72,5.32-5.33C458.07,108.12,456.53,105.63,453.81,105.87z"/>
	</g>
</g>
</svg>
