<?xml version="1.0" encoding="utf-8"?>
<!-- Generator: Adobe Illustrator 27.2.0, SVG Export Plug-In . SVG Version: 6.00 Build 0)  -->
<svg version="1.1" id="_レイヤー_2" xmlns="http://www.w3.org/2000/svg" xmlns:xlink="http://www.w3.org/1999/xlink" x="0px"
	 y="0px" viewBox="0 0 95.5 140.7" style="enable-background:new 0 0 95.5 140.7;" xml:space="preserve">
<style type="text/css">
	.st0{fill:#FFFFFF;}
	.st1{fill:#231815;}
</style>
<g>
	<polygon class="st0" points="11.9,14.4 7.9,26.5 9.1,67.6 11.9,98.8 21.9,112.5 25.5,121 39.3,131.3 57.3,131.3 70.6,119.5 
		76.2,109.6 79.3,88.4 83.3,77.5 86.9,56 83.3,48.4 68.3,48.4 71.2,45.8 84.8,41.5 84.8,17.3 61,11 	"/>
	<g id="design_00000054245886541248046010000006347189330330248081_">
		<g>
			<polygon class="st1" points="95.4,46 95.5,45.2 93,45.5 			"/>
			<polygon class="st1" points="36.7,117.7 36.4,117.9 36.4,119.6 36.7,119.9 37.4,120 37.8,119.8 37.8,118.1 37.4,117.8 			"/>
			<polygon class="st1" points="28.8,111.5 28.8,111.2 28.5,110.9 27.7,110.7 27.7,111.5 28.5,111.7 			"/>
			<path class="st1" d="M18.6,35.2v4l3.5-1.3c1-0.4,2-1,2.9-1.7c0.9-0.7,1.6-1.7,2.1-3c0.1-0.2,0.1-0.5,0.2-0.7
				c0-0.2,0.1-0.4,0.2-0.6c0-0.1,0-0.2,0.1-0.3c0.1-0.5,0.2-0.9,0.2-1.4c0-0.3,0-0.7,0.1-1h0.1l0.5-0.2l-0.6-0.2h0c0,0,0-0.1,0-0.1
				v-6.6c0-1-0.2-1.8-0.6-2.3s-0.9-0.9-1.4-1.1c-0.5-0.1-1-0.1-1.5,0c-0.6,0.1-1.2,0.2-1.8,0.4l-3.8,1.4v14.5h-0.1l-0.5,0.2
				L18.6,35.2L18.6,35.2L18.6,35.2z"/>
			<polygon class="st1" points="28.8,110.1 28.8,109.9 28.5,109.5 27.7,109.3 27.7,110.2 28.5,110.4 			"/>
			<polygon class="st1" points="40.7,118.4 40.4,118.1 39.6,118 39.6,118.9 40.4,119 40.7,118.7 			"/>
			<polygon class="st1" points="31.7,112.1 31.7,111.8 31.5,111.5 30.6,111.3 30.6,112.2 31.5,112.4 			"/>
			<path class="st1" d="M35.6,85.7c0.2-0.4,0.3-0.9,0.3-1.5v-5.3c0-0.6-0.1-1.1-0.3-1.5c-0.2-0.4-0.4-0.8-0.7-1.1
				c-0.2-0.3-0.5-0.5-0.8-0.6s-0.5-0.2-0.7-0.2h-1.7v11.7l1.7,0.2c0.2,0,0.4,0,0.7-0.1c0.3-0.1,0.5-0.3,0.8-0.5
				C35.2,86.4,35.5,86.1,35.6,85.7z"/>
			<path class="st1" d="M26.3,39.1c-0.1,0-1.6,0-1.6,0c-0.9-0.2-1.6-0.2-2.6,0.2l-3.5,1.3v6.4c0,0.1,0,0.1,0,0.2s0,0.1,0,0.2v12.1
				l3-1.2c0.7-0.3,1.3-0.6,2-1l3.7-1.5l-2.1,0.2c0,0,0,0,0.1-0.1c1.2-1.1,1.9-2.5,2.3-4.1c0.1-0.4,0.2-0.8,0.2-1.2s0.1-0.8,0.1-1.2
				v-5.3l0.9-3.4c0-0.1-1.4,0.3-1.4,0.2c0.2-0.4,1.8-0.7,1.6-1.1c-0.1-0.3-1.4,0.5-1.7,0.2c-0.2-0.2,0.5-1.1,0.3-1.3
				c-0.4-0.4-2.3,0-2.3,0L26.3,39.1L26.3,39.1z"/>
			<polygon class="st1" points="39,105.1 38.6,105.4 38.6,107 39,107.3 39.7,107.4 40,107.2 40,105.5 39.7,105.2 			"/>
			<polygon class="st1" points="22.6,108.1 22.3,107.7 21.5,107.4 21.5,108.3 22.3,108.6 22.6,108.3 			"/>
			<polygon class="st1" points="16.2,40.6 15.7,40.7 16.2,41 16.7,41.1 16.6,40.6 			"/>
			<polygon class="st1" points="30.8,116.7 30.5,116.9 30.5,118.6 30.8,118.9 31.5,119 31.9,118.8 31.9,117.2 31.5,116.8 			"/>
			<polygon class="st1" points="36.9,105.2 36.5,104.8 35.8,104.7 35.5,104.9 35.5,106.6 35.8,106.9 36.5,107 36.9,106.8 			"/>
			<polygon class="st1" points="54.3,118.8 54.3,118.5 54,118.2 53.2,118.3 53.2,119.2 54,119.1 			"/>
			<polygon class="st1" points="52.4,105.4 52.4,106.3 53.2,106.3 53.5,105.9 53.5,105.7 53.2,105.4 			"/>
			<polygon class="st1" points="55.5,105.2 55.2,105.5 55.2,107.2 55.5,107.4 56.3,107.4 56.6,107.1 56.6,105.4 56.3,105.1 			"/>
			<polygon class="st1" points="51.6,81.9 51.9,82.3 52.6,82.2 53,81.9 52.1,81.7 			"/>
			<polygon class="st1" points="55.4,14.4 55.3,13.9 54.9,13.9 54.4,14 54.9,14.3 			"/>
			<polygon class="st1" points="53.2,119.6 53.2,120.5 54.1,120.4 54.3,120.1 54.3,119.8 54.1,119.6 			"/>
			<polygon class="st1" points="60.7,111.3 60.7,111.1 60.5,110.8 59.6,110.9 59.6,111.8 60.5,111.7 			"/>
			<polygon class="st1" points="54.6,31.4 54.2,32 55.4,31.9 55.5,31.7 54.9,31.4 			"/>
			<polygon class="st1" points="31.7,110.8 31.7,110.5 31.4,110.2 30.6,110 30.6,110.9 31.4,111.1 			"/>
			<polygon class="st1" points="44.3,112.2 44.3,112 44.1,111.7 43.2,111.6 43.2,112.5 44.1,112.6 			"/>
			<path class="st1" d="M89.5,46.5c-0.4-0.1-1.1-0.1-1.5-0.1c-2.1,0.3-15.1,0.2-15.1,0.2s10.2-0.4,11.4-0.3c0.3,0,1-0.3,1.3-0.3
				c0.3,0,0.8,0.2,1.2,0.1c2.1-0.7,8.8-1.6,8.8-1.6c0.1-4.8,0-9-0.1-12.6c0,0,0,0,0,0c-0.3-1-1.6,0.6-1.6-0.4s1-1.3,1.5-2.5
				c-0.2-3.5-0.4-6.5-0.7-8.9c-0.1-0.6-0.2-1.2-0.3-1.8L94,18.5c0,0-0.6-0.2-0.7-0.2c-0.3,0-1.2,0.3-1.3,0c-0.1-0.2,0.7-0.4,0.9-0.4
				c0.3,0,1.3,0.4,1.3,0.4c-1-4.1-3.8-7.4-5.9-8.7C77.3,3,61.2,0.2,48.9,0l-4.8,0.6l-11,0.5C24,2.5,14.5,5.2,7.2,9.5
				C7,9.6,6.8,9.8,6.6,9.9c-0.7,0.4-1.5,2.1-1.1,2.8c0.4,0.6,2.9-0.7,2.9,0c0.1,0.9-3.5,0.6-3.4,1.5c0,0.4,1.8,0.1,1.7,0.5
				c0,0.2-3.3,0.2-4.2,0.9c-0.3,0.2-0.6,0.7-0.8,1c0,0,1.6-0.4,1.8,0.1c0,0.1-0.1,0.2-0.2,0.2C3.1,17.1,2,17,1.6,17.3
				c-0.1,0.1-0.2,0.3-0.1,0.4c0.6,0.7,3.6-0.1,3.7,0c0,0.3-3.8,0.6-3.8,0.6v0c-0.1,0.3-0.1,0.6-0.2,0.8c0.5,0.6,1.6,2.1,1.2,1.9
				c-0.8-0.4-1,0.6-1.5,0.5c0,0.2,0,0.4-0.1,0.7c0.3,0,0.5,0,0.6,0.5c0.1,0.5-0.3,0.6-0.7,0.7c-0.5,6.1-0.9,15.5-0.6,26.2
				c2.2,0.4,7.3,0,7.3,0c-2.5,0.7-5.6,0.8-7.3,1.3c0.1,3.1,0.2,6.3,0.5,9.5c0.5,0.6,1.6,2,1.2,1.9c-0.5-0.2-0.8,0.1-1,0.3
				c0.3,4.6,0.8,9.2,1.5,13.9l1.6,0.3h3.7l-3.4,0.7l-1.6-0.1c0.1,0.5,0.2,1,0.2,1.5c0.4,0.8,1,2.3,0.6,2c-0.1-0.1-0.2-0.2-0.3-0.2
				c0.1,0.5,0.2,1,0.2,1.5c0.2,0,0.3,0.1,0.4,0.5c0,0.3-0.1,0.5-0.2,0.6c2.1,13,5.4,26.3,10.9,34.9c0.4,0,0.9-0.2,1,0.5
				c0,0.3-0.1,0.5-0.2,0.6c0.2,0.3,0.4,0.6,0.6,0.9l-0.2-1.8l0.4,0.9l-0.1,1.1c0.3,0.4,0.6,0.8,1,1.2l0.8,0.2l2-0.1l-1.5,0.8
				l0.1,0.8l0.5-0.2l0.8-0.2l4.6,2.2l-3.4-0.7h-2l0.7,0.2l3.9,1c0,0-3.6-0.1-3.6,0.5c0,0,7.9,0.4,7.4,0.5c-1.4,0.2-2.1,0.1-5.6,0.2
				c1.8,0.4,5.5,0.2,8.6,0.9c0,0-7,0.1-8.5,0.1c0,0,0.7,1.3,1.7,2.7c0.2,0.4,0.6,0.6,0.6,0.6l0.1-0.4l0.8,0.6l-0.5,0.2
				c0.8,0.8,1.7,1.5,2.6,2.2l5.5,0.7h-4.6c0.1,0.1,0.3,0.2,0.4,0.3c1.2-0.2,3.1-0.1,3.2,2c4.7,2.6,10.2,4,16.4,4
				c14.1,0,24.2-7.5,31.3-18.8c0,0,1.6-2.2,1.8-3.1c0.7-1.9,1.2-8.1,1.2-8.1l0.2,3.9l0.6,0.1c0,0,0-0.1,0.1-0.1l0.2-2.9l0.4-2.1
				l0.2,1.4l-0.6,0.8l0.3,1.7c0-0.1,0.1-0.2,0.1-0.3l0.3-1.8v1c1-2.3,1.9-4.6,2.7-7c-0.3,0.1-0.5,0.2-0.8-0.2
				c-0.5-0.9,1.1-0.8,0.9-2.1c0-0.3,0.2,0.1,0.4,0.6c2.6-7.8,4.4-16.3,5.6-24.9c0,0-3.3-0.1-3.2-0.4c0-0.1,3.3-0.2,3.3-0.2
				c0.1-0.4,0.1-0.8,0.2-1.1c0,0-2.8,0.3-2.6-0.1c0.1-0.2,2.7-0.3,2.7-0.3c0.3-1.9,0.5-3.8,0.7-5.8c-0.2,0-0.4-0.1-0.4-0.6
				s0.2-0.5,0.6-0.6c0.2-2.2,0.4-4.4,0.6-6.5c-0.8,0-1.6,0.5-1,0c0.3-0.2,0.5-1.4,0.2-2c-0.2-0.3,0.4,0.3,0.9,1
				c0.3-4,0.5-8,0.6-11.8c0,0-0.1,0-0.1,0c-0.3-1-1.5-1-1.4-1.1c0.6-0.8,1.1-0.4,1.6-0.8c0-0.5,0-0.9,0-1.4c0,0-3.3-0.4-4.3-0.6
				C90.7,46.4,90.3,46.6,89.5,46.5L89.5,46.5z M92.9,19.4c0.1-0.2,0.4-0.5,0.5-0.5c0.1,0,0.1,0.3,0.1,0.4c0,0.2,0.2,0.5,0.1,0.7
				c-0.1,0.1-0.5,0.4-0.6,0.3C92.8,20.1,92.8,19.6,92.9,19.4L92.9,19.4z M91.2,19.2c0.1,0,0.1,0.4,0.1,0.5c0,0.2,0.4,0.9,0.2,1
				c-0.2,0.1-0.4-0.4-0.5-0.5c-0.1-0.1-0.5-0.2-0.5-0.3C90.3,19.6,90.9,19.1,91.2,19.2z M90.1,17.4c0.2,0.1,0.9,0.3,0.8,0.6
				c0,0.1-0.4,0.2-0.5,0.2c-0.2,0-0.6-0.3-0.8-0.4c-0.4,0-1.7,0.6-1.8,0.1C87.8,17.4,89.6,17.2,90.1,17.4L90.1,17.4z M4.6,16.9
				l0-0.2l2.2,0.1L4.6,16.9L4.6,16.9z M7.4,78.4L7,78.7l-0.1-0.7l0.4,0.1l0.6,0.3L7.4,78.4z M26.2,132l-0.5-0.2l-0.2-0.5l0.5,0.2
				l0.9,0.4C26.9,131.9,26.2,132,26.2,132z M82,39.1l-0.6,0.2L82,39.1L82,39.1z M78,18.1l5.4,2v2.7l-0.4-0.1c0-0.4,0-0.8-0.1-1.1
				c-0.1-0.3-0.1-0.5-0.2-0.8c-0.1-0.3-0.3-0.5-0.5-0.5l-0.7-0.2v17.7c0,0.3,0,0.4,0.1,0.5h-0.6l-0.8,1.4l-0.4,0.1v-0.8
				c0.1,0,0.2,0,0.2-0.1c0.1,0,0.1-0.1,0.2-0.3c0.1-0.2,0.1-0.3,0.1-0.6V19.7l-0.8-0.3c-0.3-0.1-0.5,0-0.6,0.2
				c-0.2,0.2-0.2,0.5-0.3,0.8c-0.1,0.4-0.1,0.8-0.2,1.2L78,21.5L78,18.1L78,18.1z M71.2,41.9c0.1,0,0.2,0,0.3-0.1
				c0.1-0.1,0.2-0.2,0.2-0.4c0.1-0.2,0.1-0.5,0.1-0.8v-9.9l1.2-0.2l-1.2-0.3V18.1c0-0.4,0-0.6-0.1-0.8c-0.1-0.2-0.2-0.3-0.2-0.4
				c-0.1-0.1-0.2-0.1-0.3-0.1v-0.9l6,2.1v3.3l-0.5-0.1c0-0.5,0-1-0.1-1.4c-0.1-0.3-0.2-0.7-0.3-1c-0.2-0.3-0.3-0.5-0.6-0.6l-2.2-0.7
				v11.5H75c0.2,0,0.3-0.1,0.4-0.2c0.1-0.1,0.2-0.3,0.2-0.5c0.1-0.2,0.1-0.5,0.1-0.8l0.4,0v4l-0.4,0c0-0.3,0-0.6-0.1-0.8
				c0-0.2-0.1-0.4-0.2-0.6s-0.2-0.2-0.4-0.2l-1.5,0v11.3l2.2-0.8c0.3-0.1,0.5-0.3,0.6-0.6s0.2-0.6,0.3-1c0.1-0.4,0.1-0.9,0.1-1.3
				l0.5-0.1v3.3l-6,2.3V41.9L71.2,41.9z M63,14.1l3.5,0.8v1c-0.2-0.1-0.3-0.1-0.4-0.1c-0.1,0-0.1,0.1-0.2,0.3s-0.1,0.5-0.1,0.9v12.7
				l-0.3,0.1l0.3,0.2v0.3c0,0-0.2,0-0.3,0.1c-0.3,0.2-0.8,1-0.8,1.4c0,0.2,0.6,0.7,0.6,0.7l0.5,0v1.1L65,33.8l0.7,0.4v0.2
				c0,0-1.1-0.3-1.2,0c-0.1,0.2,0.9,0.4,0.9,0.4l0.1,0.5l0.2-0.2v8.5l2.5-0.8c0.3-0.1,0.6-0.3,0.8-0.7c0.2-0.3,0.3-0.7,0.4-1.2
				l0.7,0.1l0.1-1.1v3.2l-7.2,2.5v-1.2c0.2,0,0.3,0,0.4-0.1c0.1-0.1,0.2-0.2,0.3-0.4c0.1-0.2,0.2-0.5,0.2-0.9V16.7
				c0-0.4,0-0.8-0.2-1c-0.1-0.2-0.2-0.4-0.3-0.4c-0.1-0.1-0.2-0.1-0.4-0.1L63,14.1L63,14.1L63,14.1z M52.4,48.2c0.2,0,0.4,0,0.5-0.2
				c0.1-0.1,0.3-0.2,0.4-0.5s0.2-0.6,0.2-1.1V34.5l0.5-0.2l-0.5-0.4v-1.7c0,0,0.2,0,0.3,0c0.3-0.2,0.7-1,0.5-1.2
				c-0.1-0.2-0.8,0-0.8,0V15.5c0-0.5-0.1-0.9-0.2-1.1c-0.1-0.2-0.3-0.4-0.4-0.5c-0.1-0.1-0.3-0.1-0.5-0.1v-1.2l4.5,0.4v1.1
				c-0.2-0.1-0.3-0.1-0.5-0.1c-0.1,0.1-0.2,0.2-0.3,0.4C56,14.7,56,15,56,15.5v14.6c0,0-1.1-0.4-1.4-0.2c-0.1,0.1-0.1,0.4,0,0.5
				c0.1,0.2,1,0.6,1,0.6l0.4,0.1V47l3.2-1.1c0.5-0.2,0.8-0.5,1-0.9c0.2-0.4,0.4-0.9,0.5-1.4c0.1-0.5,0.2-1.2,0.2-1.9l0.8-0.2V46
				h-0.2L61,46.1l0.3,0.2l-8.9,3.2L52.4,48.2L52.4,48.2L52.4,48.2z M49.8,0.6L51.4,1l-0.5,0.2L50.2,1h-1.3L49.8,0.6L49.8,0.6z
				 M48.3,1.6L48.4,2l0.1,0.7l-0.4-0.3l-0.4-0.2C47.8,2.2,48.3,1.7,48.3,1.6z M41,13.8v1.3c-0.2,0-0.4,0-0.6,0.1
				c-0.2,0.1-0.3,0.3-0.5,0.6c-0.1,0.3-0.2,0.7-0.2,1.2v2c0,1.3,0,3,0,4.9c0,2,0,4.1,0,6.5c0,0.5,0,1,0,1.5l-0.6,0.2l0.6,0.3
				c0,0.2,0,0.5,0,0.7c0,0-1-0.2-1.2,0c-0.3,0.3,0.1,1.5,0.5,1.8c0.1,0.1,0.7,0.2,0.7,0.2c0,0.4,0,0.7,0,1.1L39,36.6l0.8,0.5v0.1
				c0,2.1,0,3.9,0,5.4s0,2.4,0,2.8c0,2.9,0.3,4.8,0.8,5.7c0.5,1,1.3,1.2,2.4,0.8l0,0l0,0c0.9-0.4,1.7-1.3,2.2-2.6
				c0.5-1.3,0.8-3.4,0.8-6.1V15.9c0-0.5-0.1-0.9-0.2-1.1c-0.1-0.2-0.2-0.3-0.4-0.4c-0.2,0-0.4,0-0.6,0.1v-1.3l5.3-0.5v1.2
				c-0.1,0-0.2,0-0.3,0l0-0.2l-0.7,0.1l-0.8,1.4l0.5,0.7l0.2,0v27.4c0,0.2,0,0.4,0,0.5L48.7,44l0.5,0.3c-0.1,0.8-0.2,1.5-0.5,2.2
				c-0.4,1-0.8,2-1.5,2.9c-0.6,0.9-1.3,1.6-2,2.3c-0.5,0.5-1.1,0.8-1.6,1.1h-5.3c-0.6-0.4-1-0.9-1.4-1.7c-0.4-0.8-0.6-1.8-0.6-3
				v-1.6c0-0.9,0-2.1,0-3.6s0-3.1,0-4.9s0-3.6,0-5.5s0-3.7,0-5.5c0-1.8,0-3.4,0-4.8c0-0.4,0-0.8,0-1.2l2.8-0.9l-2.8,0.4V20l1.7-0.5
				l-1.7,0.2c0-0.3,0-0.5,0-0.8c0-0.8,0-1.2,0-1.3c0-0.6-0.1-1-0.2-1.2c-0.2-0.2-0.3-0.4-0.5-0.4c-0.1-0.1-0.3,0-0.6,0.1v-1.4
				L41,13.8L41,13.8z M43.3,52.9c-0.1,0-0.2,0.1-0.3,0.1c-0.8,0.3-1.5,0.5-2.3,0.5c-0.3,0-0.5,0-0.8-0.1L43.3,52.9L43.3,52.9z
				 M51,56.6L51,56.6l3.6-0.4L22.5,66.9l25-7.6l0,0l0.3-0.1l13.2-4c-0.3,0.3-0.5,0.5-0.8,0.8l-11,3.2l0-0.3l-0.7,0l-0.7,0.2
				l-0.3,0.1l0.6,0.3l-26.8,7.9l-1.5-0.1L51,56.6L51,56.6z M62.1,65.2c0.1,0.2,0.2,0.3,0.3,0.5l-29.8,3.2h-2.2L61.4,64
				c0.1,0.2,0.2,0.4,0.3,0.6l-26.4,3.8L62.1,65.2L62.1,65.2z M52.8,85l1,0.3c0,0.8,0,1.7,0,2.7V92c0,0.9,0,1.7,0,2.4
				c-0.4,0.5-1.1,0.7-0.7,1.3c0.2,0.3,0.4,0.4,0.6,0.3c-0.1,0.5-0.1,0.9-0.2,1.3c-0.2,0.6-0.4,1.1-0.7,1.6c-0.5,0.7-1.1,1.3-1.9,1.7
				c-0.2,0.1-0.5,0.2-0.7,0.3c-0.2-0.2-0.5-0.4-0.8-0.6c0.6-0.1,1-0.4,1.3-0.9c0.5-0.6,0.7-1.7,0.7-3.3v-3.7c0-1.4,0-2.9,0-4.5
				c0-1.5,0-3,0-4.4v-3.7c0-1.5-0.3-2.6-0.8-3.2s-1.2-0.9-2-0.9s-1.4,0.3-2,0.9s-0.8,1.7-0.8,3.2v16.3c0,1.5,0.2,2.6,0.7,3.3
				c0.4,0.5,0.9,0.8,1.5,0.9c-0.2,0.1-0.3,0.2-0.3,0.2l1.1,0.7c0,0-0.1,0-0.1,0c-0.8,0-1.5-0.2-2.3-0.6c0,0,0,0,0,0l0.6-0.1
				c0,0-0.6-0.5-1.2-0.9c-0.2-0.2-0.5-0.2-0.8-0.1c-0.2-0.2-0.3-0.4-0.5-0.6c-0.3-0.5-0.5-1-0.7-1.6c-0.2-0.6-0.3-1.3-0.3-2.2
				c-0.1-0.9-0.1-1.9-0.1-3.1v-4.1c0-2.1,0-3.9,0-5.3c0-0.1,0-0.2,0-0.3c0,0,1.7-0.2,1.7-0.3c0.1-0.1-1.7-0.3-1.7-0.3
				c0-1.1,0.1-1.8,0.3-2.6c0.1-0.8,0.3-1.5,0.7-2.1s0.9-1.1,1.4-1.4c0.9-0.6,1.8-0.8,2.8-0.8c0.5,0,0.9,0.1,1.4,0.2s0.9,0.4,1.4,0.6
				c0.6,0.4,1,0.8,1.5,1.4s0.6,1.3,0.7,2.1c0.2,0.9,0.3,2.1,0.3,3.5c0,0.3,0,0.6,0,0.9l-2,0.8L52.8,85L52.8,85z M54.1,108l-0.5,0
				l-0.7-1.3l-0.6,0v1.3l-0.5,0v-1.3l-0.3-0.2l0.3-0.2V105l1.5-0.1l0.5,0.6v0.6l-0.5,0.6C53.4,106.7,54.1,108,54.1,108z M53.2,112.5
				v0.5l-1.1,0.1v0.9l1.4-0.1v0.5l-1.9,0.1v-1.3l-0.3-0.2l0.3-0.2v-1.3l1.9-0.1v0.5l-1.4,0.1v0.9L53.2,112.5z M47.8,119.6l0.3-0.2
				V118h0.5v2.7h1.4v0.5H48v-1.3L47.8,119.6L47.8,119.6z M44.5,119.6l0.3-0.2V118h0.5v2.4l0.3,0.3h0.7l0.3-0.3V118H47v1.3l0.3,0.2
				l-0.3,0.2v0.8l-0.6,0.5h-1.1l-0.6-0.5v-0.8L44.5,119.6L44.5,119.6z M42.5,112.7l0.3-0.2v-1.4l1.5,0.1l0.5,0.6v0.6l-0.5,0.6
				l0.7,1.4l-0.5,0l-0.7-1.4l-0.6,0v1.3l-0.5,0V113L42.5,112.7L42.5,112.7z M46.2,114.5l-0.6-0.5v-0.8l-0.3-0.2l0.3-0.2v-1.3h0.5
				v2.4l0.3,0.3h0.7l0.3-0.3v-2.4h0.5v1.3l0.3,0.2l-0.3,0.2v0.8l-0.6,0.5C47.3,114.5,46.2,114.5,46.2,114.5z M47.3,106.7L47,107v1.3
				h-0.5V107l-0.3-0.2l0.3-0.2v-0.9h-0.9v-0.5h2.3v0.5H47v0.9L47.3,106.7L47.3,106.7z M48.9,114.5v-1.3l-0.3-0.2l0.3-0.2v-1.3h0.5
				v2.7h1.4v0.5C50.8,114.5,48.9,114.5,48.9,114.5z M50.4,108.3v-1.3h-1.3v1.3h-0.5v-1.3l-0.3-0.2l0.3-0.2v-1.3h0.5v1.3h1.3v-1.3
				h0.5v1.3l0.3,0.2l-0.3,0.2v1.3H50.4z M38,112.6v1.3l-0.5-0.1v-1.3l-0.3-0.3l0.3-0.2v-1.3l0.5,0.1v1.3l1.3,0.2v-1.3l0.5,0.1v1.3
				l0.3,0.3l-0.3,0.2v1.3l-0.5-0.1v-1.3L38,112.6z M32.2,105.5v1.3l-0.5-0.1v-1.3l-0.3-0.3l0.3-0.2v-1.3l0.5,0.1v1.3l1.3,0.2v-1.3
				L34,104v1.3l0.3,0.3l-0.3,0.2v1.3l-0.5-0.1v-1.3L32.2,105.5L32.2,105.5z M29.8,111l0.3-0.2v-1.4l1.5,0.3l0.5,0.7v0.6l-0.3,0.3
				l0.3,0.4v0.7l-0.5,0.5l-1.6-0.3v-1.3L29.8,111L29.8,111z M26.9,110.3l0.3-0.2v-1.4l1.5,0.4l0.5,0.7v0.6l-0.3,0.3l0.3,0.4v0.7
				l-0.5,0.5l-1.6-0.4v-1.3L26.9,110.3L26.9,110.3z M17.7,76.7L17,76.5c0-0.1,0.1-0.1,0.1-0.2c0.3-0.4,0.6-0.8,1-1.1
				c0.6-0.4,1.3-0.6,2.1-0.6h0.3c0.1,0,0.2,0,0.3,0l0,0c0,0,0.1,0,0.1,0c0,0,0.1,0,0.1,0c0.4,0.1,0.8,0.2,1,0.4
				c0.3,0.2,0.5,0.3,0.7,0.3c0.1,0.1,0.3,0.1,0.4,0c0.1-0.1,0.2-0.1,0.2-0.2c0.1-0.1,0.1-0.2,0.1-0.4h0.7v5.1l-0.7,0
				c0-0.3,0-0.6-0.1-1c0-0.3-0.1-0.6-0.2-0.9c-0.1-0.3-0.2-0.7-0.4-1c0-0.1-0.1-0.2-0.2-0.4c-0.1-0.2-0.3-0.4-0.5-0.6
				c-0.2-0.2-0.5-0.3-0.8-0.5c-0.3-0.1-0.7-0.2-1.1-0.1c-0.3,0-0.6,0.1-0.8,0.2c-0.3,0.1-0.5,0.3-0.7,0.5c-0.2,0.2-0.3,0.6-0.4,1
				c-0.1,0.4-0.2,0.9-0.2,1.5v3.6l-1.8-0.4c0-0.4,0-0.8,0-1.2c0-1.1,0.1-1.9,0.2-2.6c0,0,0,0,0-0.1l1.2-0.7L17.7,76.7L17.7,76.7z
				 M22.1,69.6H20L41.5,64l0.2,0.3v-0.3l18.4-4.8l0,0.7l-36.7,9.1l36.8-8.1l0,0.6l-3.9,0.8l-5.6,1.2L22.1,69.6L22.1,69.6z
				 M31.9,97.6c0.1,0.2,0.2,0.3,0.3,0.3c0.1,0.1,0.3,0.1,0.4,0.1v0.9l-3.7-0.7v-0.8c0.1,0.1,0.3,0.1,0.4,0.1c0.1,0,0.2-0.1,0.3-0.2
				s0.1-0.3,0.1-0.7v-5.4l2.1-0.7v6.5C31.8,97.2,31.9,97.4,31.9,97.6L31.9,97.6z M29.2,106.2l-0.6-0.6V105l0.5,0.1v0.3l0.3,0.3
				l0.7,0.1l0.3-0.2v-0.3l-0.3-0.3l-0.8-0.2l-0.6-0.6v-0.7l0.6-0.4l1,0.2l0.6,0.6v0.5l-0.5-0.1V104l-0.3-0.3l-0.6-0.1l-0.3,0.2v0.3
				l0.3,0.3l0.8,0.2l0.6,0.6v0.8l-0.6,0.4L29.2,106.2L29.2,106.2z M33.7,88.4c-0.2-0.1-0.5-0.1-0.6-0.2l-1.3-0.1v2l-2.1,0.2v-9.3
				l0.1,0.1l0.4,0.1l-0.1-0.5l-0.4,0l-0.1,0v-4.1c0-0.3,0-0.5-0.1-0.7c-0.1-0.2-0.2-0.3-0.3-0.3c-0.1,0-0.2,0-0.4,0v-0.8h4.4
				c0.8,0,1.5,0.2,2.1,0.4c0.6,0.3,1.2,0.7,1.6,1.1c0.4,0.5,0.8,1,1,1.6c0.2,0.6,0.3,1.2,0.3,1.9v3.6h-1l0.5,1.9l0.3,0.1
				c-0.1,0.3-0.2,0.6-0.4,0.9c-0.5,0.8-1.2,1.4-2.1,1.7c1.3,0.7,1.9,1.8,1.9,3.3v5.6c0,0.6,0,1.1,0.1,1.6c0.1,0.4,0.3,0.7,0.8,0.8
				c0.2,0,0.3,0,0.4,0s0.2-0.1,0.3-0.1v0.8c-0.1,0.1-0.3,0.2-0.5,0.2s-0.5,0.1-0.8,0c-0.3-0.1-0.6-0.2-0.9-0.3
				c-0.3-0.2-0.5-0.4-0.8-0.7c-0.2-0.3-0.5-0.7-0.6-1.1s-0.3-0.9-0.3-1.6v-5.6c0-0.5-0.1-0.9-0.2-1.2c-0.1-0.3-0.3-0.6-0.5-0.8
				S34,88.5,33.7,88.4L33.7,88.4z M34.4,112.3l0.5,0.1v0.3l0.3,0.3l0.7,0.1l0.3-0.2v-0.3l-0.3-0.3l-0.8-0.1l-0.6-0.6v-0.7l0.6-0.4
				l1,0.2l0.6,0.6v0.5l-0.5-0.1v-0.3l-0.3-0.3l-0.7-0.1l-0.3,0.2v0.3l0.3,0.3l0.8,0.1l0.6,0.6v0.8l-0.6,0.4l-1.1-0.2l-0.6-0.6
				L34.4,112.3L34.4,112.3L34.4,112.3z M35.6,107.4l-0.6-0.6v-0.8l-0.3-0.3l0.3-0.2v-0.8l0.6-0.4l1.1,0.2l0.6,0.6v0.8l0.3,0.3
				l-0.3,0.2v0.8l-0.6,0.4L35.6,107.4L35.6,107.4z M39.9,107.9l-1.1-0.1l-0.6-0.6v-0.8l-0.3-0.2l0.3-0.2v-0.8l0.6-0.5l1.1,0.1
				l0.6,0.6v0.8l0.3,0.3l-0.3,0.2v0.8L39.9,107.9L39.9,107.9z M11.9,21.4l11-4.1c1.6-0.6,3.1-0.9,4.2-0.9s2.1,0.2,2.9,0.6
				c0.7,0.5,1.3,1,1.6,1.8c0.3,0.8,0.5,1.6,0.5,2.6v1H32l-1,0.3l1,0.6l0.2,0V27c0,1.3-0.2,2.5-0.6,3.6s-0.9,2.1-1.5,3
				c-0.6,0.9-1.2,1.6-1.9,2.2c-0.7,0.6-1.3,1-1.9,1.2c0.5-0.2,1.1-0.3,1.8-0.2c0.7,0,1.3,0.3,1.9,0.7s1.1,1,1.5,1.9
				c0.4,0.8,0.6,1.9,0.6,3.3v5c0,1.1-0.2,2.2-0.7,3.3c-0.5,1.1-1.1,2.2-1.8,3.3c-0.8,1-1.6,2-2.5,2.8c-0.9,0.8-1.8,1.4-2.6,1.7
				l-6.8,2.7c-0.4,0.2-0.9,0.3-1.3,0.5h-3.8c0,0,0,0,0.1,0c0.2-0.2,0.5-0.4,0.6-0.8c0.2-0.3,0.2-0.6,0.3-1.1c0,0,2.9-0.6,2.7-1.4
				c-0.2-0.7-2.7,0-2.7,0v-0.7l1.1-0.1l1-0.1l2-0.9h-2.1l-0.8-0.6v-0.8h-1.2V33.4l1.7-0.5l-1.7,0.2v-7.3l3.2-1.1h-3.2v-0.9
				c0-0.4-0.1-0.8-0.2-1l1.9-0.6h-3.5L11.9,21.4L11.9,21.4z M11.9,63l2.9-0.4c-0.9,0.4-1.9,0.7-2.9,1.1V63L11.9,63z M10.2,12.9
				C10,13,9.5,13.4,9.3,13.2c-0.1-0.1,0.3-0.4,0.4-0.6c0.1-0.1,0-0.5,0.2-0.6c0.2-0.1,0.9,0.3,0.8,0.6
				C10.7,12.8,10.4,12.8,10.2,12.9L10.2,12.9z M15.7,69.2l-4.1,1.1l6.9-2.4l2.5-0.3C21,67.7,15.7,69.2,15.7,69.2z M16.9,118.1
				l-0.7-1l2.1,0.6L16.9,118.1z M18.7,113.9l-0.2,0.1l0.6-1L18.7,113.9z M19.4,119.3l-0.2-0.4l0.5-0.8
				C19.7,118.1,19.4,119.3,19.4,119.3z M22.7,110.5l-0.6-1.5l-0.5-0.2v1.3l-0.5-0.2v-1.3l-0.3-0.3l0.3-0.2v-1.4l1.5,0.5L23,108v0.6
				l-0.5,0.4l0.6,1.5L22.7,110.5L22.7,110.5z M22.4,95c-0.6,0.3-1.4,0.3-2.2,0.2c-0.6-0.1-1.1-0.3-1.7-0.7c-0.6-0.4-1-0.9-1.4-1.5
				c-0.2-0.4-0.4-0.8-0.5-1.3c-0.1-0.5-0.2-1-0.2-1.7c0-0.7-0.1-1.4-0.1-2.3v-3.1c0-0.7,0-1.3,0-1.8l1.3-0.2l-1.3,0
				c0-0.1,0-0.2,0-0.3l1.8,0.1v8.7c0,1.2,0.2,2.1,0.6,2.6c0.4,0.6,0.9,0.9,1.5,1c0.3,0.1,0.6,0.1,0.8,0.1c0.3-0.1,0.6-0.2,0.7-0.3
				s0.3-0.4,0.4-0.7s0.1-0.6,0.1-1s0-0.9,0-1.4v-4.5c0-0.2,0-0.3-0.1-0.4c0-0.1-0.1-0.2-0.2-0.3c-0.1-0.1-0.3-0.2-0.5-0.2l-1.1-0.1
				v-0.8l4.4,0.4v0.8c-0.1-0.1-0.2-0.1-0.3,0s-0.1,0.1-0.2,0.2c-0.1,0.1-0.1,0.3-0.1,0.5v8.9l-0.7-0.1C23.5,95.1,23.1,94.9,22.4,95
				L22.4,95z M26.2,110.2v0.8l-0.6,0.4l-1.1-0.3l-0.6-0.7v-0.8l-0.3-0.3l0.3-0.2v-1.3l0.5,0.1v2.4l0.3,0.4l0.7,0.2l0.3-0.2v-2.4
				l0.5,0.1v1.3l0.3,0.3L26.2,110.2L26.2,110.2z M29.3,117l-0.5-0.1v-0.4l-0.3-0.3l-0.7-0.2l-0.3,0.2v1.7l0.3,0.3l0.7,0.2l0.3-0.2
				v-0.4l0.5,0.1v0.6l-0.6,0.4l-1.1-0.2l-0.6-0.6v-0.8l-0.3-0.3l0.3-0.2v-0.8l0.6-0.4l1.1,0.2l0.6,0.7V117L29.3,117z M32.3,118.3
				v0.8l-0.6,0.4l-1.1-0.2l-0.6-0.6v-0.8l-0.3-0.3l0.3-0.2v-0.8l0.6-0.4l1.1,0.2l0.6,0.6v0.8l0.3,0.3L32.3,118.3z M32.8,111.5
				l0.3-0.2V110l0.5,0.1v1.4l0.3,0.3l-0.3,0.2v1.3l-0.5-0.1v-1.3L32.8,111.5z M34.8,134.6l-0.4-0.2l0.5-0.5l0.1,0.4l0.1,0.7
				L34.8,134.6L34.8,134.6z M35.2,120.1l-1.9-0.3v-1.3l-0.3-0.3l0.3-0.2v-1.3l0.5,0.1v2.7l1.4,0.2L35.2,120.1L35.2,120.1z
				 M38.2,119.2v0.8l-0.6,0.4l-1.1-0.2l-0.6-0.6v-0.8l-0.3-0.3l0.3-0.2v-0.8l0.6-0.4l1.1,0.2l0.6,0.6v0.8l0.3,0.3L38.2,119.2
				L38.2,119.2z M40.8,120.8l-0.7-1.4l-0.6-0.1v1.3l-0.5,0v-1.3l-0.3-0.3l0.3-0.2v-1.4l1.5,0.2l0.5,0.6v0.6l-0.5,0.5l0.7,1.4
				L40.8,120.8L40.8,120.8z M41.1,105.3v-0.5l2.3,0.1v0.5l-0.9-0.1v0.9l0.3,0.2l-0.3,0.2v1.3l-0.5,0v-1.3l-0.3-0.2l0.3-0.2v-0.9
				L41.1,105.3z M43.1,129.6l-1.2-0.1v-5l1.2,0.1V129.6z M44,118.4l-1.4-0.1v0.9l1.1,0.1v0.5l-1.1-0.1v1.3l-0.5,0v-1.3l-0.3-0.2
				l0.3-0.2v-1.3l1.9,0.1V118.4L44,118.4z M48.5,129.7l-1.2,0v-4.5l-1.7,0v4.5l-1.2,0v-5l1.2,0v0.3c0.2-0.2,0.4-0.3,0.9-0.3l0.9,0
				c0.6,0,1.1,0.3,1.1,0.6L48.5,129.7L48.5,129.7L48.5,129.7z M53.6,125.8l-1.2,0.1V125l-1.6,0.1v4.1l1.6-0.1v-1l1.2-0.1v0.9
				c0,0.3-0.5,0.6-1.1,0.6l-1.7,0.1c-0.6,0-1.1-0.2-1.1-0.5v-4c0-0.3,0.5-0.6,1.1-0.6l1.7-0.1c0.6,0,1.1,0.2,1.1,0.5
				C53.6,125.1,53.6,125.9,53.6,125.8z M52.7,121v-1.3l-0.3-0.2l0.3-0.2v-1.4l1.5-0.1l0.5,0.6v0.6l-0.3,0.4l0.3,0.3v0.7l-0.5,0.6
				L52.7,121L52.7,121z M54.9,113.7l0.7-0.1l0.3-0.3V113l-0.3-0.2l-0.8,0.1l-0.6-0.5v-0.7l0.6-0.6l1-0.1l0.6,0.5v0.5l-0.5,0v-0.3
				l-0.3-0.2l-0.7,0.1l-0.3,0.3v0.3l0.3,0.2l0.8-0.1l0.6,0.5v0.8l-0.6,0.6l-1.1,0.1l-0.6-0.5v-0.6l0.5,0v0.3L54.9,113.7L54.9,113.7z
				 M57.3,106.2l-0.3,0.2v0.8l-0.6,0.6l-1.1,0.1l-0.6-0.5v-0.8l-0.3-0.2l0.3-0.2v-0.8l0.6-0.6l1.1-0.1l0.6,0.5v0.8L57.3,106.2
				L57.3,106.2z M55.3,129.4l-0.8,0.1l0,0v-0.7l0.8-0.1L55.3,129.4L55.3,129.4z M57.8,119.2v0.8l-0.6,0.6l-1.1,0.1l-0.6-0.5v-0.8
				l-0.3-0.2l0.3-0.3v-1.3l0.5-0.1v2.4l0.3,0.3l0.7-0.1l0.3-0.3v-2.4l0.5-0.1v1.3l0.3,0.2L57.8,119.2L57.8,119.2z M58,107.2v-0.8
				l-0.3-0.2l0.3-0.3v-1.3l0.5-0.1v2.4l0.3,0.2l0.7-0.1l0.3-0.3v-2.4l0.5-0.1v1.3l0.3,0.2l-0.3,0.3v0.8l-0.6,0.6l-1.1,0.2L58,107.2
				L58,107.2z M59.5,74.7h2.3v0.8c-0.2,0-0.3,0-0.4,0c-0.1,0.1-0.2,0.2-0.3,0.3s-0.1,0.4-0.1,0.7v4.3c0,1.2,0,2.6,0,4
				c0,1.5,0,2.8,0,4.1v5c0,1.1,0.1,2,0.2,2.6L58.9,97c-0.2-0.4-0.2-1-0.2-1.6v-6.3c0-1.1,0-2.2,0-3.4c0-1.2,0-2.3,0-3.4v-5.8
				c0-0.4-0.1-0.6-0.2-0.8c-0.1-0.2-0.2-0.2-0.3-0.3c0,0-0.1,0-0.1,0L59.5,74.7L59.5,74.7L59.5,74.7z M65.1,75.8
				c-0.1-0.1-0.2-0.2-0.3-0.3c-0.1,0-0.3,0-0.4,0v-0.8H68v0.8c-0.1,0-0.2,0-0.3,0c-0.1,0-0.2,0.1-0.2,0.3s-0.1,0.4-0.1,0.7v17.2
				c0,0.7-0.1,1.3-0.4,1.9c-0.2,0.6-0.6,1.2-1,1.6c-0.4,0.5-0.8,0.9-1.3,1.2s-1,0.6-1.5,0.7c-0.5,0.1-1,0.2-1.6,0.1
				c-0.5-0.1-1-0.3-1.5-0.6c-0.4-0.3-0.8-0.7-1.1-1.3c0,0,0,0,0,0l2.2-0.7c0.1,0.4,0.2,0.7,0.3,1c0.4,0.7,0.9,0.9,1.6,0.7h0l0,0
				c0.6-0.2,1.1-0.6,1.5-1.4c0.4-0.8,0.5-2,0.5-3.7V76.4C65.2,76.1,65.2,75.9,65.1,75.8L65.1,75.8z M61.6,110.2l0.5-0.1l0.8,1.2
				l0.8-1.4l0.5-0.1l-1.1,2v1.4l-0.4,0.1v-1.4L61.6,110.2L61.6,110.2z M61,105.7l0.3-0.3v-0.8l0.6-0.6l1.1-0.2l0.6,0.4v0.7l-0.5,0.1
				v-0.4l-0.3-0.2l-0.7,0.1l-0.3,0.3v1.7l0.3,0.2l0.7-0.1l0.3-0.4v-0.3l-0.6,0.1v-0.5l1.1-0.2v1l-0.6,0.6l-1.1,0.2l-0.6-0.4v-0.8
				C61.3,105.8,61,105.6,61,105.7z M60.7,120.2l-1.9,0.2V119l-0.3-0.2l0.3-0.3v-1.3l0.5-0.1v2.7l1.4-0.2V120.2z M61.2,112.8
				l-0.5,0.7l-1.5,0.2v-1.3l-0.3-0.2l0.3-0.3v-1.4l1.5-0.2l0.5,0.5v0.6l-0.3,0.4l0.3,0.3L61.2,112.8L61.2,112.8L61.2,112.8z
				 M63.4,119.7l-1.9,0.3v-1.3l-0.3-0.2l0.3-0.3v-1.3l0.5-0.1v2.7l1.4-0.2L63.4,119.7L63.4,119.7z M66.1,116.4l-1.4,0.3v0.9l1.1-0.2
				v0.5l-1.1,0.2v0.9l1.4-0.3v0.5l-1.9,0.4v-1.3L64,118l0.3-0.3v-1.3l1.9-0.4V116.4z M64.9,105.1v1.3l-0.4,0.1v-1.3l-0.3-0.2
				l0.3-0.3v-1.3l0.4-0.1v1.3l1.3-0.3V103l0.4-0.1v1.3l0.3,0.2l-0.3,0.3v1.3l-0.4,0.1v-1.3L64.9,105.1z M68.7,115.7l-0.9,0.2v0.9
				l0.2,0.2l-0.2,0.3v1.3l-0.4,0.1v-1.3l-0.2-0.2l0.2-0.3v-0.9l-0.9,0.2v-0.5l2.1-0.6L68.7,115.7L68.7,115.7L68.7,115.7z
				 M68.8,109.1l-0.9,0.2v0.9l0.3,0.2l-0.3,0.3v1.3l-0.5,0.1v-1.3l-0.3-0.2l0.3-0.3v-0.9l-0.9,0.2v-0.5l2.3-0.6L68.8,109.1
				L68.8,109.1L68.8,109.1z M71.6,109.6v1.3l-0.4,0.1v-1.3l-1.2,0.3v1.3l-0.4,0.1v-1.3l-0.2-0.2l0.2-0.3v-1.3l0.4-0.1v1.3l1.2-0.3
				v-1.3l0.4-0.1v1.3l0.2,0.2L71.6,109.6z M74.7,107.2l-1.4,0.5v0.9l1.1-0.4v0.5l-1.1,0.4v0.9l1.4-0.5v0.5l-1.8,0.6v-1.3l-0.3-0.2
				l0.3-0.3v-1.3l1.8-0.6V107.2L74.7,107.2z M80.3,81.8c0,0.5-0.1,1-0.2,1.5c-0.2,0.5-0.4,1-0.7,1.4c-0.3,0.4-0.7,0.8-1.2,1.1
				c-0.4,0.3-1,0.4-1.6,0.6l-0.1-0.2l-1,0.1l-1.1,0.6L74,88l0.9-0.5v6.8c0,0.3,0,0.5,0.1,0.6s0.2,0.2,0.2,0.2c0.1,0,0.2,0,0.4-0.1
				v0.8l-3.5,0.9v-0.8c0.2,0,0.3,0,0.4-0.1c0.1,0,0.2-0.2,0.3-0.3c0.1-0.2,0.2-0.4,0.2-0.7V76.5c0-0.3-0.1-0.5-0.2-0.7
				c-0.1-0.1-0.2-0.2-0.3-0.3c-0.1,0-0.2,0-0.4,0v-0.7h4.3c0.7,0,1.3,0.1,1.8,0.3c0.5,0.2,0.9,0.5,1.2,0.9l0.2,0.8l0.4,0.1
				c0.1,0.2,0.1,0.3,0.2,0.4c0.2,0.5,0.2,1,0.2,1.5c0,0.4,0,0.9,0,1.5S80.3,81.4,80.3,81.8L80.3,81.8z M83.3,109.3l0-1.3l0.3,0.9
				C83.6,108.9,83.3,109.3,83.3,109.3z M83.5,63.1L83.5,63.1L83,62.6l-0.3,1l0.3,0c-1.4,1.9-3.5,3.3-6.2,4.1l-0.3-0.3
				c5.3-1.8,7.2-6.8,7.2-6.8s-0.1,0-0.2,0.1c0.5-0.8,0.6-2,0.3-3.2c-0.4-1.9-1.8-3.3-2.9-3s-1.8,2.1-1.3,4c0.1,0.5,0.3,1,0.5,1.4
				c-2.6-2.4-1.9-6.3-1.9-6.3c-3.3,3.8,0.5,9.5,0.5,9.5c-3.8-2.7-3.6-9.8-3.6-9.8c-3.1,5.2,1.1,10.8,1.1,10.8
				c-0.7-0.5-1.2-1-1.7-1.7l-0.1-0.2l-0.1-0.1c-0.7-1-1.2-2.2-1.6-3.4l-0.1-0.4l0.1-0.7l-0.4-0.3c-0.1-0.3-0.1-0.5-0.2-0.8h0.1
				l-0.6-2.4c-2.2,5.4,2,10.9,2,10.9c-1.5-1.1-2.5-2.7-3.2-4.4v0l-0.2-0.8l-0.3-0.3c-1.3-2.5-1.2-4.8-1.2-4.8
				c-2.3,5.3,1.9,10.7,1.9,10.7c-1.5-0.9-2.4-2.3-3.1-3.7v-0.7L67.1,60c-0.7-2.6-0.5-4.8-0.5-4.8c-0.8,1.4-1,2.8-1,4.1l-0.2,0.3
				l0.3,0.4c0.1,1.4,0.6,2.6,1.1,3.6l-0.1,0.2L67,64c0.7,1.2,1.4,2,1.4,2c-6.2-3.8-3.3-12.5-3.3-12.5c-4.9,5.6-0.6,12.8,2.8,13.8
				c3.1,0.9,5.7,0.9,7.8,0.4l-0.1,0.4c-1,0.2-1.9,0.5-3,0.5l-0.5-0.1l-20.4,0.4l13.5-1.4l0.9,0.3L58,68.5l11.2-0.2l-1.9-0.5
				c-0.8-0.4-2.1-1.2-3.1-2.3h-0.1c-0.2-0.2-0.3-0.3-0.4-0.5h0.1l-0.4-0.4c-0.2-0.3-0.4-0.6-0.5-0.8h0.1c-0.6-1-1-2.2-1.2-3.7
				c-0.5-3.8,1.6-6.4,3.2-7.8c-0.4,0.2-0.8,0.5-1.2,0.8l0.1-0.1l-9,3.1l-2.2-0.1l12.3-4.3l0.2,0.2l1.2-0.1l-0.6-0.4l0.7-0.2
				c0.1,0,0.1-0.1,0.1-0.1c0.4-0.1,0.7-0.2,1.1-0.4l0.1,0c0,0,0,0,0,0c3.1-0.9,5.9-1.2,8.3-1l-0.3,0.2l1.6,0.2l0-0.2
				c4.3,0.8,7.2,3.4,7.6,7.3C85,59.5,84.5,61.4,83.5,63.1L83.5,63.1z M85.2,103.2l0.3,1.1l-0.2-0.2L85.2,103.2L85.2,103.2z
				 M85.5,107.8l-0.1-2.4l0.3,1.4L85.5,107.8z M89.3,48.6l-0.4-0.2l0.5-0.5l0.1,0.4l0.1,0.7L89.3,48.6z"/>
			<polygon class="st1" points="59.6,112.3 59.6,113.1 60.5,113 60.8,112.6 60.8,112.4 60.5,112.1 			"/>
			<path class="st1" d="M77.7,76.2c-0.2-0.2-0.4-0.4-0.6-0.5c-0.2-0.1-0.4-0.2-0.6-0.2h-1.6v10.3l1.6-0.2c0.2,0,0.4-0.1,0.6-0.2
				c0.2-0.1,0.4-0.3,0.6-0.6s0.4-0.6,0.5-0.9c0.2-0.3,0.2-0.8,0.2-1.3v-4.3c0-0.5-0.1-0.9-0.2-1.3C78.1,76.7,77.9,76.4,77.7,76.2
				L77.7,76.2z"/>
			<polygon class="st1" points="74.3,85.5 73.7,85.6 74.3,85.9 74.9,85.7 74.6,85.5 			"/>
			<polygon class="st1" points="74.8,50.2 75.2,50.2 75.1,50 			"/>
			<path class="st1" d="M72.8,26.4c0,0.1,0.2,0.1,0.2,0.1c0,0,0.1-0.1,0.1-0.2C73,26.2,72.8,26.3,72.8,26.4z"/>
		</g>
	</g>
</g>
</svg>
